<svg xmlns="http://www.w3.org/2000/svg" role="img" aria-labelledby="title desc" viewBox="0 0 1200 680">
  <title id="title">RusDox reproducible benchmark history</title>
  <desc id="desc">Median end-to-end runtime by dated protocol run on a logarithmic millisecond scale. Data is generated from checked-in JSON reports.</desc>
  <style>.bg{fill:#08111f}.grid{stroke:#233248;stroke-width:1}.axis{fill:#94a3b8;font:14px ui-monospace,SFMono-Regular,Menlo,monospace}.title{fill:#f8fafc;font:700 30px system-ui,sans-serif}.subtitle{fill:#94a3b8;font:15px system-ui,sans-serif}.legend{fill:#dbeafe;font:15px system-ui,sans-serif}.note{fill:#64748b;font:13px system-ui,sans-serif}</style>
  <rect class="bg" width="1200" height="680" rx="24"/>
  <text x="96" y="42" class="title">Reproducible benchmark history</text>
  <text x="96" y="102" class="subtitle">Median total runtime · log scale · lower is better</text>
  <g transform="translate(96,72)"><circle r="6" fill="#2dd4bf"/><text x="14" y="5" class="legend">Small dual</text></g><g transform="translate(346,72)"><circle r="6" fill="#60a5fa"/><text x="14" y="5" class="legend">Medium dual</text></g><g transform="translate(596,72)"><circle r="6" fill="#f59e0b"/><text x="14" y="5" class="legend">1,000-page dual</text></g><g transform="translate(846,72)"><circle r="6" fill="#f472b6"/><text x="14" y="5" class="legend">Existing DOCX</text></g><line x1="96" y1="584" x2="1160" y2="584" class="grid"/><text x="80" y="589" text-anchor="end" class="axis">0.0ms</text><line x1="96" y1="466" x2="1160" y2="466" class="grid"/><text x="80" y="471" text-anchor="end" class="axis">5.3ms</text><line x1="96" y1="348" x2="1160" y2="348" class="grid"/><text x="80" y="353" text-anchor="end" class="axis">39ms</text><line x1="96" y1="230" x2="1160" y2="230" class="grid"/><text x="80" y="235" text-anchor="end" class="axis">249ms</text><line x1="96" y1="112" x2="1160" y2="112" class="grid"/><text x="80" y="117" text-anchor="end" class="axis">1.6s</text><path d="M192.0,377.3 M1064.0,463.7" fill="none" stroke="#2dd4bf" stroke-width="3"/><circle cx="192" cy="377.2948284482127" r="6" fill="#2dd4bf"><title>Small dual: 24.13 ms</title></circle><circle cx="1064" cy="463.7292520654795" r="6" fill="#2dd4bf"><title>Small dual: 5.53 ms</title></circle><path d="M192.0,368.0 M1064.0,451.0" fill="none" stroke="#60a5fa" stroke-width="3"/><circle cx="192" cy="368.0080221705029" r="6" fill="#60a5fa"><title>Medium dual: 28.04 ms</title></circle><circle cx="1064" cy="451.0234199340874" r="6" fill="#60a5fa"><title>Medium dual: 6.96 ms</title></circle><path d="M192.0,112.0 M1064.0,119.3" fill="none" stroke="#f59e0b" stroke-width="3"/><circle cx="192" cy="112" r="6" fill="#f59e0b"><title>1,000-page dual: 1573.62 ms</title></circle><circle cx="1064" cy="119.33420128722435" r="6" fill="#f59e0b"><title>1,000-page dual: 1403.42 ms</title></circle><path d="M192.0,450.8 M1064.0,529.0" fill="none" stroke="#f472b6" stroke-width="3"/><circle cx="192" cy="450.8340503135779" r="6" fill="#f472b6"><title>Existing DOCX: 6.98 ms</title></circle><circle cx="1064" cy="529.0321512082156" r="6" fill="#f472b6"><title>Existing DOCX: 1.36 ms</title></circle><text x="192" y="612" text-anchor="middle" class="axis">2026-08-23 23:17Z</text><text x="192" y="633" text-anchor="middle" class="note">darwin/arm64</text><text x="1064" y="612" text-anchor="middle" class="axis">2026-08-23 23:20Z</text><text x="1064" y="633" text-anchor="middle" class="note">linux/x64</text>
  <text x="96" y="662" class="note">2 checked-in runs · 2 host identities · lines only connect comparable hosts</text>
</svg>
